<?xml version="1.0" encoding="utf-8"?>
<!-- Generator: Adobe Illustrator 16.0.0, SVG Export Plug-In . SVG Version: 6.00 Build 0)  -->
<!DOCTYPE svg PUBLIC "-//W3C//DTD SVG 1.1//EN" "http://www.w3.org/Graphics/SVG/1.1/DTD/svg11.dtd">
<svg version="1.1" id="Isolation_Mode" xmlns="http://www.w3.org/2000/svg" xmlns:xlink="http://www.w3.org/1999/xlink" x="0px"
	 y="0px" width="141.761px" height="78.461px" viewBox="0 0 141.761 78.461" enable-background="new 0 0 141.761 78.461"
	 xml:space="preserve">
<g>
	<path d="M38.565,67.417h-0.498c-0.432,0-0.43,0.156-0.43,0.268v5.199h-4.65v-5.203c0-0.107,0-0.264-0.436-0.264h-0.493
		c-0.427,0-0.427,0.16-0.427,0.268l-0.005,10.513c0.005,0.104,0.005,0.264,0.432,0.264h0.493c0.436,0,0.436-0.16,0.436-0.264v-3.846
		h4.65l-0.002,3.846c0.002,0.104,0,0.264,0.434,0.264h0.497c0.431,0,0.431-0.16,0.431-0.264V67.685
		C38.998,67.573,38.996,67.417,38.565,67.417z"/>
	<path d="M17.814,72.639c0.032-0.024,0.065-0.072,0.065-0.164v-4.79c0.002-0.111,0-0.268-0.428-0.268h-5.692
		c-0.428,0-0.428,0.156-0.428,0.264v10.517c0,0.104,0,0.264,0.428,0.268l0.5-0.004c0.426,0,0.426-0.16,0.426-0.264v-3.644h2.938
		l1.326,3.563c0.107,0.26,0.132,0.344,0.608,0.344h0.653c0.096,0,0.17-0.034,0.212-0.1c0.046-0.061,0.046-0.16,0.004-0.268
		l-1.74-4.315L17.814,72.639z M15.591,73.197l-2.905-0.004v-4.42h3.836l0.004,3.487L15.591,73.197z"/>
	<path d="M27.971,77.104h-4.195l-0.646-1.808l0.017-4.798l0.629-1.731h4.199c0.107,0,0.268,0,0.268-0.427v-0.495
		c0-0.428-0.161-0.428-0.268-0.428h-4.671c-0.283,0-0.534,0.18-0.637,0.443l-0.95,2.604c-0.027,0.072-0.042,0.148-0.048,0.233v4.477
		c0,0.084,0.021,0.164,0.044,0.236l0.954,2.607c0.103,0.268,0.354,0.443,0.635,0.443h4.673c0.103,0,0.268,0,0.273-0.434
		l-0.006-0.491C28.243,77.104,28.082,77.104,27.971,77.104z"/>
	<path d="M71.364,68.767h4.193c0.107,0,0.266,0,0.262-0.427l0.004-0.495c-0.004-0.428-0.159-0.428-0.266-0.428h-4.671
		c-0.285,0-0.535,0.18-0.638,0.439l-0.948,2.607c-0.027,0.068-0.038,0.148-0.038,0.233v4.477c0,0.08,0.015,0.164,0.038,0.236
		l0.948,2.607c0.097,0.26,0.357,0.443,0.638,0.443h4.67c0.107,0.004,0.264,0.004,0.264-0.432l0.004-0.497
		c0-0.429-0.161-0.429-0.268-0.429H71.36l-0.648-1.808l0.017-4.798L71.364,68.767z"/>
	<path d="M46.672,67.417h-3.77c-0.111,0-0.275,0-0.275,0.428l0.002,0.495c-0.002,0.427,0.162,0.427,0.273,0.427h1.172v8.341h-1.172
		c-0.111,0-0.275,0-0.275,0.425v0.501c0,0.428,0.164,0.428,0.275,0.428h3.77c0.103,0,0.27,0,0.27-0.428v-0.501
		c0-0.425-0.167-0.421-0.273-0.425h-1.231v-8.341h1.235c0.103,0,0.27,0,0.27-0.427v-0.499
		C46.942,67.417,46.775,67.417,46.672,67.417z"/>
	<path d="M56.472,67.417H50.04c-0.118,0-0.268,0-0.268,0.424l-0.006,0.499c0.006,0.427,0.155,0.427,0.273,0.427h2.535v9.431
		c0,0.104,0,0.264,0.436,0.264l0.497,0.004c0.43-0.004,0.43-0.164,0.428-0.268l0.002-9.431h2.539c0.103,0,0.271,0,0.271-0.427
		l-0.001-0.495C56.745,67.417,56.579,67.417,56.472,67.417z"/>
	<path d="M85.072,67.417h-6.43c-0.111,0-0.271,0-0.271,0.424v0.499c0,0.427,0.16,0.427,0.271,0.427h2.531l-0.003,9.431
		c0,0.104,0,0.268,0.432,0.264H82.1c0.422,0,0.43-0.168,0.43-0.264v-9.431h2.542c0.111,0,0.268,0,0.271-0.427v-0.499
		C85.34,67.417,85.183,67.417,85.072,67.417z"/>
	<path d="M66.033,67.417h-5.811c-0.103,0-0.26,0-0.26,0.424v10.192c0,0.428,0.157,0.428,0.26,0.432l5.811-0.004
		c0.1,0,0.262,0,0.262-0.428v-0.497c0-0.429-0.165-0.425-0.262-0.429h-4.72v-3.674h2.868c0.111,0,0.268,0,0.268-0.424v-0.501
		c0-0.425-0.157-0.425-0.268-0.425h-2.868v-3.317h4.72c0.097,0,0.262,0,0.262-0.427v-0.495
		C66.294,67.417,66.132,67.417,66.033,67.417z"/>
	<path d="M88.696,70.773l0.676-2h3.934c0.105,0,0.27,0,0.27-0.428v-0.501c0-0.428-0.157-0.428-0.27-0.428h-4.429
		c-0.288,0-0.548,0.184-0.634,0.459l-0.954,2.84c-0.069,0.188-0.037,0.394,0.057,0.562l5.417,3.861l-0.648,1.965h-4.272
		c-0.109,0-0.271,0-0.271,0.429v0.497c0,0.432,0.163,0.432,0.271,0.436l4.754-0.008c0.287,0,0.552-0.184,0.646-0.461l0.95-2.838
		c0.063-0.191,0.04-0.391-0.059-0.562L88.696,70.773z"/>
	<path d="M7.028,67.417H0.9c-0.426,0-0.426,0.156-0.426,0.268v10.513c0,0.104,0,0.264,0.426,0.264h0.499
		c0.43,0,0.428-0.16,0.428-0.264v-3.644h4.277v3.644c-0.005,0.104,0,0.264,0.428,0.264h0.49c0.432,0,0.432-0.16,0.436-0.264V67.685
		C7.458,67.573,7.458,67.417,7.028,67.417z M6.104,73.193H1.829l-0.002-4.42h4.277V73.193z"/>
	<path d="M8.122,16.948c0.54,0,1.009-0.329,1.197-0.868l2.489-6.949c0.117-0.304,0.117-0.609,0-0.891L9.366,1.361
		C9.178,0.867,8.708,0.516,8.168,0.516H0.939C0.281,0.516,0,0.751,0,1.222V16.22c0,0.471,0.281,0.729,0.939,0.729H8.122z
		 M2.582,3.099h4.671l1.972,5.563l-2.042,5.704H2.582V3.099z"/>
	<path d="M15.008,16.948h7.628c0.493,0,0.705-0.306,0.705-0.938v-0.705c0-0.658-0.211-0.938-0.705-0.938h-2.582V3.099h2.582
		c0.493,0,0.705-0.329,0.705-0.938V1.454c0-0.632-0.211-0.938-0.705-0.938h-7.628c-0.47,0-0.751,0.307-0.751,0.938V2.16
		c0,0.609,0.282,0.938,0.751,0.938h2.464v11.268h-2.464c-0.47,0-0.751,0.28-0.751,0.938v0.705
		C14.256,16.643,14.538,16.948,15.008,16.948z"/>
	<path d="M41.681,1.525l-3.216-1.432C38.395,0.07,38.183,0,38.042,0c-0.118,0-0.353,0.07-0.422,0.094L34.31,1.29l-3.216-1.196
		C31,0.07,30.812,0,30.648,0c-0.117,0-0.352,0.07-0.423,0.094l-3.192,1.432c-0.54,0.164-0.868,0.657-0.868,1.221V16.22
		c0,0.471,0.281,0.729,0.916,0.729h0.728c0.61,0,0.938-0.258,0.938-0.729V3.686l1.902-1.01l2.394,0.916V16.22
		c0,0.471,0.306,0.729,0.916,0.729h0.728c0.657,0,0.938-0.258,0.938-0.729V3.592l2.418-0.916l1.948,1.01V16.22
		c0,0.471,0.282,0.729,0.939,0.729h0.704c0.634,0,0.939-0.258,0.939-0.729V2.746C42.573,2.183,42.221,1.689,41.681,1.525z"/>
	<path d="M46.151,16.948h7.629c0.493,0,0.704-0.306,0.704-0.938v-0.705c0-0.658-0.211-0.938-0.704-0.938h-2.582V3.099h2.582
		c0.493,0,0.704-0.329,0.704-0.938V1.454c0-0.632-0.211-0.938-0.704-0.938h-7.629c-0.47,0-0.751,0.307-0.751,0.938V2.16
		c0,0.609,0.281,0.938,0.751,0.938h2.465v11.268h-2.465c-0.47,0-0.751,0.28-0.751,0.938v0.705
		C45.4,16.643,45.682,16.948,46.151,16.948z"/>
	<path d="M61.885,16.22c0,0.471,0.282,0.729,0.916,0.729h0.681c0.634,0,0.962-0.258,0.962-0.729V3.099h3.873
		c0.47,0,0.704-0.329,0.704-0.938V1.454c0-0.632-0.234-0.938-0.704-0.938H58.011c-0.492,0-0.704,0.307-0.704,0.938V2.16
		c0,0.609,0.211,0.938,0.704,0.938h3.874V16.22z"/>
	<path d="M73.278,16.948h0.681c0.634,0,0.962-0.258,0.962-0.729v-4.858h3.639l1.831,4.858c0.188,0.564,0.399,0.729,1.15,0.729h0.962
		c0.446,0,0.798-0.399,0.587-0.963l-2.301-5.774l2.371-3.638c0.258-0.329,0.306-0.729,0.188-1.128l-1.361-4.037
		c-0.188-0.541-0.681-0.893-1.221-0.893h-7.489c-0.657,0-0.962,0.235-0.962,0.706V16.22C72.315,16.69,72.621,16.948,73.278,16.948z
		 M74.921,3.099h4.906l0.845,2.56l-2.089,3.121h-3.662V3.099z"/>
	<path d="M87.37,16.948H95c0.493,0,0.705-0.306,0.705-0.938v-0.705c0-0.658-0.211-0.938-0.705-0.938h-2.582V3.099H95
		c0.493,0,0.705-0.329,0.705-0.938V1.454c0-0.632-0.211-0.938-0.705-0.938H87.37c-0.47,0-0.75,0.307-0.75,0.938V2.16
		c0,0.609,0.281,0.938,0.75,0.938h2.465v11.268H87.37c-0.47,0-0.75,0.28-0.75,0.938v0.705C86.62,16.643,86.9,16.948,87.37,16.948z"
		/>
	<path d="M105.077,17.394l4.271-1.525c0.493-0.188,0.869-0.703,0.869-1.244V2.793c0-0.517-0.376-1.01-0.869-1.22l-4.271-1.479
		c-0.259-0.117-0.587-0.117-0.846,0l-4.342,1.525c-0.54,0.212-0.893,0.68-0.893,1.221v11.738c0,0.587,0.353,1.055,0.893,1.242
		l4.342,1.573C104.49,17.465,104.818,17.465,105.077,17.394z M101.603,3.779l3.052-1.104l2.981,1.08v9.976l-2.981,1.057
		l-3.052-1.079V3.779z"/>
	<path d="M123.935,16.056l1.361-4.085c0.141-0.352,0.211-1.08-0.047-1.406l-9.038-5.354l0.657-2.112h6.877
		c0.446,0,0.681-0.306,0.681-0.916V1.454c0-0.632-0.235-0.938-0.681-0.938h-7.793c-0.563,0-1.08,0.352-1.221,0.893l-1.385,4.037
		c-0.141,0.399-0.07,0.799,0.141,1.128l9.084,5.397l-0.798,2.396h-7.301c-0.493,0-0.751,0.258-0.751,0.915v0.729
		c0,0.633,0.258,0.938,0.751,0.938l8.24-0.022C123.277,16.926,123.77,16.597,123.935,16.056z"/>
	<path d="M11.572,30.334c0-0.14-0.047-0.352-0.07-0.423l-1.362-4.036c-0.187-0.541-0.657-0.893-1.197-0.893H1.432
		c-0.634,0-0.962,0.234-0.962,0.705v14.998c0,0.471,0.329,0.729,0.962,0.729h0.681c0.657,0,0.962-0.258,0.962-0.729v-5h5.869
		c0.54,0,1.01-0.352,1.197-0.891l1.362-4.039C11.525,30.662,11.572,30.452,11.572,30.334z M7.981,33.08H3.075v-5.516h4.906
		l0.962,2.77L7.981,33.08z"/>
	<path d="M23.224,40.686c0,0.471,0.282,0.729,0.939,0.729h0.705c0.633,0,0.938-0.258,0.938-0.729V27.283
		c0-0.541-0.352-1.034-0.868-1.244l-4.249-1.479c-0.282-0.116-0.563-0.116-0.869,0L15.5,26.085
		c-0.516,0.212-0.869,0.705-0.869,1.222v13.379c0,0.471,0.306,0.729,0.962,0.729h0.658c0.657,0,0.962-0.258,0.962-0.729v-5.116
		l2.558,0.867c0.165,0.048,0.306,0.071,0.47,0.071c0.093,0,0.258-0.023,0.399-0.071l2.583-0.867V40.686z M20.242,33.854L17.214,32.8
		v-4.556l3.028-1.103l2.981,1.08V32.8L20.242,33.854z"/>
	<path d="M39.241,25.875c-0.188-0.541-0.658-0.893-1.197-0.893h-7.512c-0.633,0-0.962,0.234-0.962,0.705v14.998
		c0,0.471,0.329,0.729,0.962,0.729h0.681c0.658,0,0.962-0.258,0.962-0.729v-5h5.869c0.539,0,1.009-0.352,1.197-0.891l1.361-4.039
		c0.023-0.094,0.07-0.304,0.07-0.422c0-0.14-0.047-0.352-0.07-0.423L39.241,25.875z M37.082,33.08h-4.906v-5.516h4.906l0.962,2.77
		L37.082,33.08z"/>
	<path d="M52.324,40.686c0,0.471,0.282,0.729,0.938,0.729h0.705c0.634,0,0.939-0.258,0.939-0.729V27.283
		c0-0.541-0.353-1.034-0.869-1.244l-4.249-1.479c-0.282-0.116-0.564-0.116-0.869,0l-4.319,1.525
		c-0.516,0.212-0.869,0.705-0.869,1.222v13.379c0,0.471,0.306,0.729,0.962,0.729h0.658c0.657,0,0.962-0.258,0.962-0.729v-5.116
		l2.558,0.867c0.165,0.048,0.306,0.071,0.47,0.071c0.094,0,0.258-0.023,0.399-0.071l2.582-0.867V40.686z M49.343,33.854L46.315,32.8
		v-4.556l3.028-1.103l2.981,1.08V32.8L49.343,33.854z"/>
	<path d="M69.773,30.334c0-0.14-0.047-0.352-0.07-0.423l-1.361-4.036c-0.188-0.541-0.658-0.893-1.197-0.893h-7.512
		c-0.633,0-0.962,0.234-0.962,0.705v14.998c0,0.471,0.329,0.729,0.962,0.729h0.681c0.658,0,0.962-0.258,0.962-0.729v-5h5.869
		c0.54,0,1.009-0.352,1.197-0.891l1.361-4.039C69.726,30.662,69.773,30.452,69.773,30.334z M66.182,33.08h-4.906v-5.516h4.906
		l0.962,2.77L66.182,33.08z"/>
	<path d="M82.646,27.564c0.47,0,0.704-0.306,0.704-0.938V25.92c0-0.632-0.234-0.938-0.704-0.938h-9.084
		c-0.47,0-0.728,0.306-0.728,0.938v14.556c0,0.633,0.258,0.938,0.728,0.938h9.084c0.47,0,0.704-0.306,0.704-0.938v-0.705
		c0-0.633-0.234-0.938-0.704-0.938h-7.207v-4.601h4.554c0.469,0,0.705-0.306,0.705-0.938v-0.705c0-0.633-0.235-0.939-0.705-0.939
		h-4.554v-4.084H82.646z"/>
	<path d="M97.183,24.982H86.877c-0.493,0-0.704,0.306-0.704,0.938v0.706c0,0.609,0.211,0.938,0.704,0.938h3.874v13.121
		c0,0.471,0.282,0.729,0.916,0.729h0.681c0.633,0,0.962-0.258,0.962-0.729V27.564h3.873c0.47,0,0.704-0.329,0.704-0.938V25.92
		C97.887,25.288,97.653,24.982,97.183,24.982z"/>
	<path d="M110.853,25.875c-0.188-0.541-0.681-0.893-1.221-0.893h-7.488c-0.657,0-0.962,0.234-0.962,0.705v14.998
		c0,0.471,0.305,0.729,0.962,0.729h0.681c0.634,0,0.962-0.258,0.962-0.729v-4.858h3.639l1.831,4.858
		c0.188,0.564,0.399,0.729,1.15,0.729h0.963c0.445,0,0.798-0.399,0.587-0.963l-2.301-5.774l2.371-3.638
		c0.258-0.329,0.305-0.729,0.188-1.128L110.853,25.875z M107.449,33.245h-3.663v-5.681h4.906l0.845,2.559L107.449,33.245z"/>
	<path d="M126.166,26.039l-4.272-1.479c-0.259-0.116-0.587-0.116-0.845,0l-4.343,1.525c-0.54,0.212-0.893,0.681-0.893,1.222v11.737
		c0,0.587,0.353,1.056,0.893,1.242l4.343,1.573c0.258,0.071,0.586,0.071,0.845,0l4.272-1.525c0.493-0.188,0.869-0.703,0.869-1.244
		V27.259C127.035,26.742,126.659,26.249,126.166,26.039z M124.452,38.197l-2.981,1.057l-3.052-1.079v-9.931l3.052-1.103l2.981,1.08
		V38.197z"/>
	<path d="M140.822,24.982h-0.728c-0.634,0-0.939,0.234-0.939,0.705v13.074h-3.591l-2.418-1.245V25.688
		c0-0.471-0.305-0.705-0.938-0.705h-0.681c-0.634,0-0.962,0.234-0.962,0.705v12.558c0,0.563,0.352,1.009,0.868,1.292l3.663,1.807
		c0.141,0.048,0.258,0.07,0.422,0.07h5.375c0.516-0.188,0.869-0.681,0.869-1.221V25.688
		C141.761,25.217,141.456,24.982,140.822,24.982z"/>
</g>
</svg>
